<svg width="20" height="21" viewBox="0 0 20 21" fill="none" xmlns="http://www.w3.org/2000/svg">
<path fill-rule="evenodd" clip-rule="evenodd" d="M10.0114 3.38059L8.97522 2.19118C8.48955 1.6262 7.91132 1.17707 7.27381 0.86965C6.6363 0.56223 5.95211 0.402595 5.26062 0.399936C4.56914 0.397277 3.88404 0.551647 3.24474 0.854156C2.60545 1.15667 2.02461 1.60134 1.53566 2.16258C1.0467 2.72381 0.659299 3.39052 0.39575 4.12432C0.132201 4.85812 -0.00228713 5.64451 2.94248e-05 6.43821C0.00234598 7.23191 0.141421 8.01725 0.409248 8.749C0.677075 9.48076 1.06836 10.1445 1.56058 10.7019L9.98666 20.3736L9.98856 20.3715L10.0133 20.3999L18.4394 10.7282C18.9316 10.1707 19.3229 9.50702 19.5908 8.77526C19.8586 8.04351 19.9977 7.25817 20 6.46447C20.0023 5.67077 19.8678 4.88438 19.6042 4.15058C19.3407 3.41678 18.9533 2.75007 18.4643 2.18884C17.9754 1.6276 17.3945 1.18293 16.7553 0.880417C16.116 0.577908 15.4309 0.423538 14.7394 0.426197C14.0479 0.428856 13.3637 0.588491 12.7262 0.895911C12.0887 1.20333 11.5104 1.65246 11.0248 2.21745L10.0114 3.38059ZM9.98856 17.277L14.694 11.8749L16.0762 10.343H16.0781L17.0915 9.18099C17.7172 8.46274 18.0688 7.48858 18.0688 6.47282C18.0688 5.45706 17.7172 4.48291 17.0915 3.76466C16.4657 3.04641 15.617 2.6429 14.7321 2.6429C13.8472 2.6429 12.9985 3.04641 12.3727 3.76466L10.0124 6.47501L10.0057 6.46735L7.62728 3.73949C7.00153 3.02124 6.15284 2.61773 5.2679 2.61773C4.38296 2.61773 3.53427 3.02124 2.90852 3.73949C2.28278 4.45774 1.93124 5.4319 1.93124 6.44765C1.93124 7.46341 2.28278 8.43757 2.90852 9.15582L5.32986 11.9351L5.33082 11.9318L9.98856 17.2781V17.277Z" fill="#BF0000"/>
</svg>
