<svg width="41" height="34" viewBox="0 0 41 34" fill="none" xmlns="http://www.w3.org/2000/svg">
<path d="M1.96 26.1501C2.35 26.1701 2.61 26.1701 2.85 26.1701C3.38 26.1701 7.73 26.1701 8.22 26.1701C8.43 26.1701 8.79 26.1701 9.1 26.1601C9.08 26.4001 9.08 26.6801 9.08 26.9301C9.08 27.4001 9.08 31.4801 9.08 31.8601C9.08 32.1801 9.09 32.9601 9.1 33.0701H8.23C8.24 32.9601 8.25 32.3901 8.25 31.9701C8.25 31.6001 8.25 26.9601 8.25 26.9601H2.79C2.79 26.9601 2.79 31.5601 2.79 31.9701C2.79 32.3001 2.8 32.9401 2.8 33.0701H1.95C1.95 32.9401 1.97 32.2101 1.97 31.8601C1.97 31.4501 1.97 27.3201 1.97 26.9301C1.97 26.7001 1.97 26.4001 1.96 26.1501ZM8.58 31.7201V32.5001H2.39V31.7201H8.58ZM18.15 25.0001C18.4 25.3601 18.76 25.9701 18.96 26.3701L18.42 26.6201C18.22 26.2101 17.88 25.6101 17.61 25.2301L18.15 25.0001ZM19.24 24.6001C19.51 24.9701 19.89 25.5901 20.08 25.9601L19.54 26.2001C19.32 25.7701 19 25.2001 18.72 24.8301L19.24 24.6001ZM18.81 26.9901C18.73 27.1401 18.63 27.3701 18.58 27.5301C18.31 28.5301 17.69 29.8901 16.81 30.9701C15.9 32.0801 14.7 33.0001 12.82 33.6901L12.1 33.0401C13.94 32.5001 15.18 31.5901 16.09 30.5301C16.87 29.6101 17.48 28.3201 17.69 27.4101H13.98L14.3 26.6901C14.71 26.6901 17.18 26.6901 17.49 26.6901C17.76 26.6901 17.98 26.6601 18.15 26.5901L18.81 26.9901ZM15.46 25.4801C15.3 25.7401 15.12 26.0801 15.02 26.2701C14.43 27.3701 13.38 28.8001 11.78 29.8701L11.08 29.3501C12.81 28.3201 13.79 26.8701 14.23 25.9701C14.33 25.8001 14.48 25.4301 14.54 25.1801L15.46 25.4801ZM21.36 29.3901C23.09 28.9301 24.61 28.2201 25.72 27.5301C26.77 26.8701 27.77 26.0101 28.46 25.1701L29.13 25.8001C28.27 26.6901 27.22 27.5301 26.05 28.2601C24.95 28.9401 23.36 29.6701 21.75 30.1701L21.36 29.3901ZM25.56 27.9401L26.42 27.6801V32.2501C26.42 32.6201 26.44 33.1201 26.49 33.3101H25.5C25.53 33.1201 25.56 32.6201 25.56 32.2501V27.9401ZM32.77 25.6801C33.47 26.1501 34.76 27.1901 35.31 27.7401L34.69 28.3801C34.18 27.8601 32.94 26.7801 32.19 26.2901L32.77 25.6801ZM31.91 32.3801C33.65 32.1201 34.95 31.5101 35.9 30.9201C37.45 29.9501 38.66 28.4701 39.24 27.2301L39.72 28.0901C39.04 29.3301 37.88 30.6901 36.37 31.6401C35.36 32.2701 34.1 32.8901 32.43 33.2001L31.91 32.3801Z" fill="#7F5539"/>
<path d="M18.0714 9V6L22.8333 10L18.0714 14V11H9.5V9H18.0714ZM10.8886 13H12.9114C13.5762 14.7191 14.7892 16.1422 16.343 17.0259C17.8967 17.9097 19.6946 18.1991 21.4291 17.8447C23.1636 17.4904 24.727 16.5142 25.8517 15.0832C26.9765 13.6523 27.5928 11.8554 27.5952 10C27.5962 8.14266 26.9817 6.34283 25.857 4.90922C24.7324 3.47561 23.1677 2.49756 21.4314 2.14281C19.6951 1.78807 17.8953 2.07874 16.3407 2.96498C14.7862 3.85121 13.5738 5.27778 12.9114 7H10.8886C12.1019 2.943 15.7114 0 19.9762 0C25.2362 0 29.5 4.477 29.5 10C29.5 15.523 25.2362 20 19.9762 20C15.7114 20 12.1019 17.057 10.8886 13Z" fill="#7F5539"/>
</svg>
