<svg width="61" height="60" viewBox="0 0 61 60" fill="none" xmlns="http://www.w3.org/2000/svg">
<path d="M1.752 50.78C2.22 50.804 2.532 50.804 2.82 50.804C3.456 50.804 8.676 50.804 9.264 50.804C9.516 50.804 9.948 50.804 10.32 50.792C10.296 51.08 10.296 51.416 10.296 51.716C10.296 52.28 10.296 57.176 10.296 57.632C10.296 58.016 10.308 58.952 10.32 59.084H9.276C9.288 58.952 9.3 58.268 9.3 57.764C9.3 57.32 9.3 51.752 9.3 51.752H2.748C2.748 51.752 2.748 57.272 2.748 57.764C2.748 58.16 2.76 58.928 2.76 59.084H1.74C1.74 58.928 1.764 58.052 1.764 57.632C1.764 57.14 1.764 52.184 1.764 51.716C1.764 51.44 1.764 51.08 1.752 50.78ZM9.696 57.464V58.4H2.268V57.464H9.696ZM21.18 49.4C21.48 49.832 21.912 50.564 22.152 51.044L21.504 51.344C21.264 50.852 20.856 50.132 20.532 49.676L21.18 49.4ZM22.488 48.92C22.812 49.364 23.268 50.108 23.496 50.552L22.848 50.84C22.584 50.324 22.2 49.64 21.864 49.196L22.488 48.92ZM21.972 51.788C21.876 51.968 21.756 52.244 21.696 52.436C21.372 53.636 20.628 55.268 19.572 56.564C18.48 57.896 17.04 59 14.784 59.828L13.92 59.048C16.128 58.4 17.616 57.308 18.708 56.036C19.644 54.932 20.376 53.384 20.628 52.292H16.176L16.56 51.428C17.052 51.428 20.016 51.428 20.388 51.428C20.712 51.428 20.976 51.392 21.18 51.308L21.972 51.788ZM17.952 49.976C17.76 50.288 17.544 50.696 17.424 50.924C16.716 52.244 15.456 53.96 13.536 55.244L12.696 54.62C14.772 53.384 15.948 51.644 16.476 50.564C16.596 50.36 16.776 49.916 16.848 49.616L17.952 49.976ZM35.172 50.9C35.076 51.008 34.932 51.188 34.848 51.32C34.368 52.136 33.228 53.684 31.86 54.632L31.056 53.996C32.172 53.36 33.3 52.064 33.684 51.32C32.844 51.32 27.42 51.32 26.844 51.32C26.4 51.32 25.956 51.344 25.488 51.38V50.3C25.908 50.36 26.4 50.408 26.844 50.408C27.42 50.408 33.024 50.408 33.744 50.408C33.972 50.408 34.404 50.372 34.572 50.324L35.172 50.9ZM30.372 52.472C30.372 55.724 30.084 57.92 27.024 59.456L26.148 58.736C26.472 58.628 26.892 58.424 27.228 58.196C29.076 57.056 29.34 55.352 29.34 53.348C29.34 53.06 29.34 52.796 29.292 52.472H30.372ZM42.48 49.4C42.432 49.772 42.42 50.048 42.42 50.3C42.42 50.576 42.42 51.476 42.42 51.896H41.4C41.4 51.428 41.4 50.576 41.4 50.3C41.4 50.048 41.388 49.772 41.34 49.4H42.48ZM46.572 51.728C46.512 51.896 46.44 52.22 46.404 52.448C46.236 53.408 45.888 54.908 45.216 56.048C44.328 57.62 42.672 58.844 40.476 59.444L39.696 58.556C40.092 58.484 40.548 58.364 40.932 58.22C42.144 57.824 43.452 56.936 44.196 55.796C44.844 54.776 45.216 53.324 45.324 52.304H38.628C38.628 52.796 38.628 54.08 38.628 54.452C38.628 54.656 38.64 54.98 38.664 55.16H37.62C37.656 54.956 37.668 54.632 37.668 54.392C37.668 54.008 37.668 52.7 37.668 52.28C37.668 52.028 37.668 51.62 37.62 51.368C37.968 51.392 38.328 51.416 38.748 51.416H45.108C45.552 51.416 45.768 51.368 45.924 51.32L46.572 51.728ZM52.032 57.944C52.032 57.272 52.032 51.968 52.032 50.972C52.032 50.624 52.008 50.096 51.948 49.712H53.124C53.076 50.084 53.04 50.6 53.04 50.972C53.04 52.832 53.052 57.38 53.052 57.944C53.052 58.328 53.076 58.976 53.124 59.372H51.96C52.02 58.988 52.032 58.388 52.032 57.944ZM52.824 52.868C54.408 53.324 56.832 54.248 58.164 54.896L57.744 55.916C56.376 55.184 54.132 54.332 52.824 53.924V52.868Z" fill="#7F5539"/>
<path d="M28.1429 18V12L37.6667 20L28.1429 28V22H11V18H28.1429ZM13.7771 26H17.8229C19.1525 29.4382 21.5785 32.2844 24.6859 34.0519C27.7934 35.8194 31.3892 36.3982 34.8582 35.6895C38.3272 34.9807 41.4539 33.0284 43.7035 30.1665C45.953 27.3045 47.1856 23.7108 47.1905 20C47.1924 16.2853 45.9634 12.6857 43.7141 9.81844C41.4648 6.95122 38.3355 4.99511 34.8628 4.28563C31.3901 3.57614 27.7906 4.15748 24.6815 5.92995C21.5724 7.70243 19.1476 10.5556 17.8229 14H13.7771C16.2038 5.886 23.4229 0 31.9524 0C42.4724 0 51 8.954 51 20C51 31.046 42.4724 40 31.9524 40C23.4229 40 16.2038 34.114 13.7771 26Z" fill="#7F5539"/>
</svg>
