<svg width="21" height="20" viewBox="0 0 21 20" fill="none" xmlns="http://www.w3.org/2000/svg">
<path d="M20.0756 3.96903C20.006 3.88583 19.9191 3.81891 19.8209 3.773C19.7227 3.72709 19.6155 3.7033 19.5071 3.70332H4.57174L4.11901 1.21654C4.05701 0.875219 3.87717 0.566487 3.61087 0.34417C3.34456 0.121852 3.00867 5.01377e-05 2.66177 0H0.990658C0.794224 0 0.605834 0.0780339 0.466934 0.216935C0.328033 0.355837 0.25 0.544227 0.25 0.740664C0.25 0.9371 0.328033 1.12549 0.466934 1.26439C0.605834 1.40329 0.794224 1.48133 0.990658 1.48133H2.65714L5.02354 14.4698C5.09325 14.855 5.26348 15.2149 5.51701 15.5132C5.16709 15.84 4.91453 16.2574 4.78733 16.719C4.66013 17.1806 4.66326 17.6684 4.79637 18.1284C4.92949 18.5883 5.18739 19.0024 5.54147 19.3247C5.89556 19.647 6.33199 19.865 6.80238 19.9544C7.27277 20.0438 7.75873 20.0012 8.20638 19.8313C8.65404 19.6614 9.04588 19.3708 9.33847 18.9918C9.63107 18.6128 9.81297 18.1601 9.86401 17.684C9.91506 17.208 9.83325 16.727 9.62766 16.2946H13.8328C13.6671 16.6415 13.5813 17.0212 13.5819 17.4056C13.5819 17.9183 13.7339 18.4195 14.0187 18.8458C14.3036 19.2721 14.7084 19.6044 15.1821 19.8006C15.6558 19.9968 16.177 20.0481 16.6799 19.9481C17.1827 19.8481 17.6447 19.6012 18.0072 19.2386C18.3697 18.8761 18.6166 18.4142 18.7167 17.9113C18.8167 17.4085 18.7653 16.8872 18.5691 16.4136C18.3729 15.9399 18.0407 15.535 17.6144 15.2502C17.1881 14.9653 16.6869 14.8133 16.1742 14.8133H7.20941C7.03596 14.8132 6.86802 14.7523 6.73486 14.6412C6.60171 14.53 6.51179 14.3757 6.48079 14.205L6.1873 12.5913H16.9269C17.4472 12.5912 17.951 12.4085 18.3505 12.075C18.75 11.7415 19.0197 11.2785 19.1127 10.7665L20.2385 4.57638C20.2576 4.46939 20.2529 4.35951 20.2247 4.25455C20.1965 4.14959 20.1456 4.05211 20.0756 3.96903ZM8.39724 17.4056C8.39724 17.6253 8.33208 17.8401 8.21001 18.0228C8.08793 18.2055 7.91442 18.3479 7.71141 18.432C7.50841 18.5161 7.28502 18.5381 7.06951 18.4952C6.854 18.4524 6.65604 18.3466 6.50067 18.1912C6.34529 18.0358 6.23948 17.8379 6.19661 17.6223C6.15375 17.4068 6.17575 17.1834 6.25984 16.9804C6.34392 16.7774 6.48632 16.6039 6.66902 16.4818C6.85173 16.3598 7.06652 16.2946 7.28626 16.2946C7.58091 16.2946 7.86349 16.4116 8.07184 16.62C8.28019 16.8284 8.39724 17.1109 8.39724 17.4056ZM17.2851 17.4056C17.2851 17.6253 17.22 17.8401 17.0979 18.0228C16.9758 18.2055 16.8023 18.3479 16.5993 18.432C16.3963 18.5161 16.1729 18.5381 15.9574 18.4952C15.7419 18.4524 15.5439 18.3466 15.3886 18.1912C15.2332 18.0358 15.1274 17.8379 15.0845 17.6223C15.0416 17.4068 15.0637 17.1834 15.1477 16.9804C15.2318 16.7774 15.3742 16.6039 15.5569 16.4818C15.7396 16.3598 15.9544 16.2946 16.1742 16.2946C16.4688 16.2946 16.7514 16.4116 16.9597 16.62C17.1681 16.8284 17.2851 17.1109 17.2851 17.4056ZM17.6555 10.5017C17.6244 10.6728 17.5341 10.8275 17.4003 10.9388C17.2666 11.05 17.098 11.1106 16.9241 11.11H5.91789L4.84116 5.18465H18.6193L17.6555 10.5017Z" fill="#7F5539"/>
</svg>
