<svg width="20" height="20" viewBox="0 0 20 20" fill="none" xmlns="http://www.w3.org/2000/svg">
<path d="M8.57143 9V6L13.3333 10L8.57143 14V11H0V9H8.57143ZM1.38857 13H3.41143C4.07623 14.7191 5.28925 16.1422 6.84297 17.0259C8.39669 17.9097 10.1946 18.1991 11.9291 17.8447C13.6636 17.4904 15.227 16.5142 16.3517 15.0832C17.4765 13.6523 18.0928 11.8554 18.0952 10C18.0962 8.14266 17.4817 6.34283 16.357 4.90922C15.2324 3.47561 13.6677 2.49756 11.9314 2.14281C10.1951 1.78807 8.39528 2.07874 6.84074 2.96498C5.2862 3.85121 4.07378 5.27778 3.41143 7H1.38857C2.6019 2.943 6.21143 0 10.4762 0C15.7362 0 20 4.477 20 10C20 15.523 15.7362 20 10.4762 20C6.21143 20 2.6019 17.057 1.38857 13Z" fill="#7F5539"/>
</svg>
