<svg width="21" height="20" viewBox="0 0 21 20" fill="none" xmlns="http://www.w3.org/2000/svg">
<path d="M9.07143 9V6L13.8333 10L9.07143 14V11H0.5V9H9.07143ZM1.88857 13H3.91143C4.57623 14.7191 5.78925 16.1422 7.34297 17.0259C8.89669 17.9097 10.6946 18.1991 12.4291 17.8447C14.1636 17.4904 15.727 16.5142 16.8517 15.0832C17.9765 13.6523 18.5928 11.8554 18.5952 10C18.5962 8.14266 17.9817 6.34283 16.857 4.90922C15.7324 3.47561 14.1677 2.49756 12.4314 2.14281C10.6951 1.78807 8.89528 2.07874 7.34074 2.96498C5.7862 3.85121 4.57378 5.27778 3.91143 7H1.88857C3.1019 2.943 6.71143 0 10.9762 0C16.2362 0 20.5 4.477 20.5 10C20.5 15.523 16.2362 20 10.9762 20C6.71143 20 3.1019 17.057 1.88857 13Z" fill="#7F5539"/>
</svg>
